<svg xmlns="http://www.w3.org/2000/svg" fill="none" viewBox="0 0 150 21" height="21" width="150">
<g clip-path="url(#clip0_7497_1167)">
<path fill="white" d="M16.2643 4.84735C14.778 4.84735 13.3525 5.44077 12.3016 6.49705C11.2506 7.55334 10.6602 8.98597 10.6602 10.4798V16.0126H12.9015V10.4798C12.9015 9.58342 13.2558 8.72376 13.8864 8.08994C14.5171 7.45611 15.3724 7.10003 16.2643 7.10003C17.1561 7.10003 18.0115 7.45611 18.6421 8.08994C19.2727 8.72376 19.627 9.58342 19.627 10.4798V10.4798V16.0126H21.8684V10.4798C21.8684 8.98597 21.2779 7.55334 20.227 6.49705C19.176 5.44077 17.7506 4.84735 16.2643 4.84735Z"></path>
<path fill="white" d="M31.8062 5.19975V5.97295C30.9735 5.34564 29.9835 4.96373 28.9471 4.87001C27.9107 4.77629 26.8687 4.97446 25.938 5.44232C25.0073 5.91017 24.2246 6.62924 23.6776 7.51896C23.1306 8.40868 22.8408 9.4339 22.8408 10.4798C22.8408 11.5257 23.1306 12.5509 23.6776 13.4406C24.2246 14.3303 25.0073 15.0494 25.938 15.5173C26.8687 15.9851 27.9107 16.1833 28.9471 16.0896C29.9835 15.9958 30.9735 15.6139 31.8062 14.9866V16.0126H34.049V5.19975H31.8062ZM28.4434 13.8625C27.7784 13.8625 27.1282 13.6643 26.5752 13.2929C26.0222 12.9216 25.5912 12.3937 25.3367 11.7761C25.0821 11.1586 25.0156 10.479 25.1453 9.8234C25.2751 9.16779 25.5953 8.56558 26.0656 8.09291C26.5359 7.62024 27.1351 7.29835 27.7874 7.16794C28.4397 7.03753 29.1159 7.10447 29.7303 7.36027C30.3448 7.61608 30.87 8.04927 31.2395 8.60507C31.609 9.16086 31.8062 9.81431 31.8062 10.4828C31.8062 10.9266 31.7192 11.3661 31.5502 11.7761C31.3812 12.1862 31.1335 12.5588 30.8213 12.8726C30.509 13.1864 30.1383 13.4354 29.7303 13.6052C29.3223 13.7751 28.8851 13.8625 28.4434 13.8625V13.8625Z"></path>
<path fill="white" d="M41.2672 4.84735C39.7809 4.84735 38.3555 5.44077 37.3045 6.49705C36.2535 7.55334 35.6631 8.98597 35.6631 10.4798V20.7692H37.9059V14.9866C38.6164 15.5219 39.4432 15.8798 40.3183 16.0309C41.1934 16.182 42.0917 16.1219 42.9392 15.8557C43.7867 15.5894 44.5591 15.1246 45.1928 14.4995C45.8265 13.8744 46.3033 13.1069 46.5839 12.2602C46.8646 11.4136 46.9411 10.512 46.8071 9.62981C46.6731 8.74763 46.3325 7.91007 45.8133 7.18614C45.294 6.46222 44.6111 5.87265 43.8207 5.46603C43.0303 5.0594 42.1551 4.84735 41.2672 4.84735ZM41.2672 13.8595C40.6022 13.8593 39.9522 13.6608 39.3993 13.2892C38.8465 12.9177 38.4158 12.3897 38.1615 11.7721C37.9072 11.1545 37.8408 10.475 37.9707 9.81952C38.1006 9.16401 38.421 8.56193 38.8914 8.08941C39.3617 7.61689 39.9609 7.29515 40.6132 7.16486C41.2654 7.03457 41.9415 7.10159 42.5559 7.35744C43.1703 7.61329 43.6954 8.04648 44.0648 8.60225C44.4342 9.15801 44.6314 9.8114 44.6314 10.4798C44.6318 10.924 44.5451 11.3639 44.3762 11.7744C44.2073 12.1849 43.9595 12.5579 43.647 12.8721C43.3346 13.1863 42.9635 13.4354 42.5552 13.6054C42.1468 13.7753 41.7092 13.8627 41.2672 13.8625V13.8595Z"></path>
<path fill="white" d="M75.6419 5.19975V7.10003C74.9361 6.15438 73.9522 5.45588 72.8295 5.10347C71.7068 4.75105 70.5023 4.76259 69.3865 5.13645C68.2706 5.5103 67.3002 6.22752 66.6125 7.18652C65.9247 8.14552 65.5547 9.29767 65.5547 10.4798C65.5547 11.6619 65.9247 12.8141 66.6125 13.7731C67.3002 14.732 68.2706 15.4493 69.3865 15.8231C70.5023 16.197 71.7068 16.2085 72.8295 15.8561C73.9522 15.5037 74.9361 14.8052 75.6419 13.8595V16.0126H76.7633V5.19975H75.6419ZM71.1592 14.9866C70.2722 14.9869 69.4051 14.7228 68.6675 14.2278C67.9299 13.7328 67.3549 13.029 67.0153 12.2055C66.6757 11.382 66.5866 10.4758 66.7595 9.60146C66.9323 8.72712 67.3593 7.92394 67.9864 7.2935C68.6134 6.66305 69.4124 6.23367 70.2823 6.05965C71.1522 5.88564 72.0539 5.9748 72.8734 6.31587C73.6928 6.65693 74.3932 7.23459 74.886 7.97577C75.3788 8.71695 75.6419 9.58835 75.6419 10.4798C75.6419 11.6748 75.1696 12.8209 74.329 13.6661C73.4884 14.5112 72.3482 14.9862 71.1592 14.9866V14.9866Z"></path>
<path fill="white" d="M64.783 9.2843C64.7681 8.29139 64.4272 7.33125 63.8134 6.55314C63.1995 5.77503 62.3471 5.22254 61.3886 4.98158C60.4301 4.74062 59.4192 4.82468 58.5132 5.22069C57.6071 5.61669 56.8566 6.30246 56.3783 7.17139C55.9 6.30246 55.1495 5.61669 54.2435 5.22069C53.3374 4.82468 52.3266 4.74062 51.3681 4.98158C50.4096 5.22254 49.5571 5.77503 48.9433 6.55314C48.3294 7.33125 47.9885 8.29139 47.9736 9.2843V16.0126H49.0936V9.3527C49.0936 8.45633 49.4478 7.59667 50.0785 6.96285C50.7091 6.32902 51.5645 5.97294 52.4563 5.97294C53.3482 5.97294 54.2035 6.32902 54.8342 6.96285C55.4648 7.59667 55.8191 8.45633 55.8191 9.3527V16.0126H56.9405V9.3527C56.9405 8.45633 57.2948 7.59667 57.9254 6.96285C58.5561 6.32902 59.4114 5.97294 60.3033 5.97294C61.1951 5.97294 62.0505 6.32902 62.6811 6.96285C63.3117 7.59667 63.666 8.45633 63.666 9.3527V16.0126H64.7874V9.2843H64.783Z"></path>
<path fill="white" d="M95.8651 11.1727C95.7308 12.0468 95.3433 12.8617 94.7509 13.5158C94.1586 14.17 93.3877 14.6342 92.5344 14.8507C91.6812 15.0672 90.7834 15.0263 89.9531 14.7332C89.1228 14.44 88.3969 13.9076 87.8658 13.2023L93.8132 9.75119L95.5693 8.73265L96.5472 8.16465C96.4702 7.99514 96.3844 7.82861 96.2912 7.66356C95.6117 6.47953 94.5271 5.58408 93.2395 5.14399C91.9519 4.70389 90.5491 4.74915 89.2922 5.27133C88.0353 5.79351 87.0102 6.75702 86.4076 7.98241C85.805 9.20781 85.6661 10.6116 86.0167 11.9322C86.3674 13.2529 87.1836 14.4005 88.3136 15.1612C89.4435 15.922 90.81 16.2441 92.1586 16.0675C93.5072 15.8909 94.746 15.2277 95.6443 14.2014C96.5425 13.1751 97.039 11.8556 97.0413 10.4887L95.8651 11.1727ZM89.1944 6.57663C90.1404 6.02838 91.2529 5.84582 92.3233 6.06317C93.3937 6.28052 94.3485 6.88286 95.0085 7.75724L87.3051 12.2269C86.8815 11.2154 86.8397 10.0833 87.1876 9.04302C87.5354 8.00275 88.249 7.12577 89.1944 6.57663V6.57663Z"></path>
<path fill="white" d="M86.6805 4.84586H85.096L79.5052 10.4649V0H78.3838V16.0126H79.5052V12.0574L80.3071 11.2515L85.0442 16.0126H86.6287L81.1 10.4545L86.6805 4.84586Z"></path>
<path fill="white" d="M98.2402 10.4798V16.0126H99.3616V10.4887V10.4798C99.3616 9.2845 99.8341 8.13817 100.675 7.29297C101.516 6.44777 102.657 5.97295 103.846 5.97295V4.84735C103.11 4.84716 102.381 4.9927 101.701 5.27567C101.021 5.55864 100.403 5.97349 99.8822 6.49653C99.3616 7.01957 98.9487 7.64055 98.667 8.324C98.3852 9.00746 98.2402 9.74 98.2402 10.4798Z"></path>
<path fill="white" d="M4.04375 9.19807C3.0614 9.02707 2.43856 8.45461 2.53176 7.97285C2.66343 7.27995 3.72715 7.10003 5.16516 7.05542C6.36525 7.02889 7.55919 7.23486 8.68178 7.66208L9.49695 5.74694C8.14075 5.13948 6.67638 4.81377 5.19179 4.78937C2.25807 4.78937 0.00488281 6.35955 0.00488281 8.12154C0.00488281 10.0367 2.2625 11.2693 4.4432 11.4775C6.21852 11.647 7.31182 12.3087 7.25413 12.9377C7.19939 13.4923 6.28361 13.7674 5.27316 13.8149C3.79889 13.8852 2.32544 13.6603 0.938408 13.1533L0.124717 15.0863C1.89218 15.9026 3.84244 16.2364 5.77913 16.0542C8.55603 15.7925 10.2174 13.9636 10.0103 12.4856C9.60643 9.5921 5.75693 9.49991 4.04375 9.19807Z"></path>
</g>
<rect fill="white" rx="2" height="18.4615" width="41.5385" y="1.15384" x="108.461"></rect>
<path fill="white" d="M142.8 15.1475C142.042 15.1475 141.388 14.9902 140.838 14.6755C140.29 14.3575 139.869 13.9084 139.574 13.3282C139.279 12.7447 139.132 12.058 139.132 11.268C139.132 10.4911 139.279 9.80932 139.574 9.22257C139.872 8.63253 140.289 8.17362 140.823 7.84582C141.357 7.51474 141.985 7.34921 142.706 7.34921C143.172 7.34921 143.611 7.4246 144.024 7.57539C144.44 7.7229 144.807 7.95235 145.125 8.26376C145.447 8.57517 145.699 8.9718 145.883 9.45367C146.066 9.93225 146.158 10.5026 146.158 11.1648V11.7105H139.967V10.5108H144.452C144.448 10.1699 144.375 9.86669 144.23 9.60117C144.086 9.33238 143.885 9.12095 143.626 8.96689C143.37 8.81282 143.072 8.73579 142.731 8.73579C142.367 8.73579 142.047 8.82429 141.772 9.0013C141.497 9.17504 141.282 9.4045 141.128 9.68968C140.977 9.97158 140.9 10.2814 140.897 10.619V11.6663C140.897 12.1055 140.977 12.4825 141.138 12.7972C141.298 13.1086 141.523 13.3479 141.811 13.5151C142.1 13.679 142.437 13.7609 142.824 13.7609C143.083 13.7609 143.318 13.7249 143.527 13.6527C143.737 13.5774 143.919 13.4675 144.073 13.3233C144.227 13.1791 144.344 13.0004 144.422 12.7874L146.084 12.9742C145.979 13.4135 145.779 13.797 145.484 14.1248C145.193 14.4493 144.819 14.7017 144.363 14.882C143.908 15.059 143.386 15.1475 142.8 15.1475Z"></path>
<path fill="white" d="M134.277 15V7.44755H136.003V8.70629H136.082C136.219 8.27032 136.456 7.93433 136.79 7.69831C137.127 7.45902 137.513 7.33937 137.945 7.33937C138.044 7.33937 138.153 7.34429 138.275 7.35412C138.399 7.36068 138.503 7.37215 138.585 7.38854V9.02589C138.509 8.99967 138.39 8.97672 138.226 8.95705C138.065 8.93411 137.909 8.92263 137.759 8.92263C137.434 8.92263 137.142 8.99311 136.883 9.13406C136.628 9.27174 136.426 9.4635 136.278 9.70935C136.131 9.95519 136.057 10.2387 136.057 10.56V15H134.277Z"></path>
<path fill="white" d="M129.148 15.1475C128.41 15.1475 127.771 14.9852 127.23 14.6607C126.689 14.3362 126.27 13.8822 125.971 13.2987C125.676 12.7152 125.529 12.0334 125.529 11.2533C125.529 10.4731 125.676 9.78966 125.971 9.2029C126.27 8.61614 126.689 8.16051 127.23 7.83599C127.771 7.51147 128.41 7.34921 129.148 7.34921C129.885 7.34921 130.524 7.51147 131.065 7.83599C131.606 8.16051 132.024 8.61614 132.319 9.2029C132.617 9.78966 132.767 10.4731 132.767 11.2533C132.767 12.0334 132.617 12.7152 132.319 13.2987C132.024 13.8822 131.606 14.3362 131.065 14.6607C130.524 14.9852 129.885 15.1475 129.148 15.1475ZM129.158 13.7216C129.557 13.7216 129.892 13.6118 130.161 13.3921C130.429 13.1692 130.629 12.871 130.76 12.4973C130.895 12.1236 130.962 11.7073 130.962 11.2484C130.962 10.7862 130.895 10.3682 130.76 9.99453C130.629 9.61756 130.429 9.31763 130.161 9.09473C129.892 8.87182 129.557 8.76037 129.158 8.76037C128.748 8.76037 128.407 8.87182 128.135 9.09473C127.866 9.31763 127.664 9.61756 127.53 9.99453C127.399 10.3682 127.333 10.7862 127.333 11.2484C127.333 11.7073 127.399 12.1236 127.53 12.4973C127.664 12.871 127.866 13.1692 128.135 13.3921C128.407 13.6118 128.748 13.7216 129.158 13.7216Z"></path>
<path fill="white" d="M124.446 7.44755V8.82429H120.104V7.44755H124.446ZM121.176 5.63811H122.956V12.7284C122.956 12.9677 122.992 13.1512 123.064 13.2791C123.14 13.4036 123.238 13.4888 123.359 13.5347C123.48 13.5806 123.615 13.6036 123.762 13.6036C123.874 13.6036 123.975 13.5954 124.067 13.579C124.162 13.5626 124.234 13.5479 124.284 13.5347L124.584 14.9262C124.488 14.959 124.352 14.9951 124.175 15.0344C124.002 15.0737 123.789 15.0967 123.536 15.1033C123.09 15.1164 122.689 15.0492 122.332 14.9017C121.974 14.7509 121.691 14.5181 121.481 14.2034C121.274 13.8888 121.173 13.4954 121.176 13.0234V5.63811Z"></path>
<path fill="white" d="M117.234 7.69831C117.188 7.2689 116.995 6.93454 116.654 6.69525C116.316 6.45596 115.877 6.33631 115.336 6.33631C114.956 6.33631 114.63 6.39368 114.357 6.50841C114.085 6.62314 113.877 6.77884 113.733 6.97552C113.589 7.1722 113.515 7.39674 113.512 7.64914C113.512 7.85893 113.559 8.04086 113.654 8.19492C113.753 8.34899 113.885 8.48011 114.053 8.58828C114.22 8.69318 114.405 8.78168 114.608 8.8538C114.811 8.92591 115.016 8.98655 115.223 9.03572L116.167 9.27174C116.547 9.36024 116.913 9.47989 117.263 9.63068C117.617 9.78146 117.934 9.97158 118.212 10.201C118.494 10.4305 118.717 10.7075 118.881 11.032C119.045 11.3565 119.127 11.7368 119.127 12.1727C119.127 12.7628 118.976 13.2823 118.675 13.7314C118.373 14.1772 117.937 14.5263 117.367 14.7787C116.8 15.0279 116.113 15.1524 115.306 15.1524C114.523 15.1524 113.843 15.0311 113.266 14.7886C112.692 14.546 112.243 14.192 111.919 13.7265C111.597 13.261 111.424 12.6939 111.397 12.0252H113.192C113.218 12.376 113.327 12.6677 113.517 12.9005C113.707 13.1332 113.954 13.3069 114.259 13.4217C114.567 13.5364 114.911 13.5937 115.292 13.5937C115.688 13.5937 116.036 13.5347 116.334 13.4167C116.636 13.2954 116.872 13.1283 117.042 12.9152C117.213 12.6989 117.299 12.4465 117.303 12.158C117.299 11.8958 117.222 11.6794 117.072 11.509C116.921 11.3352 116.709 11.191 116.437 11.0763C116.169 10.9583 115.854 10.8534 115.493 10.7616L114.348 10.4666C113.518 10.2535 112.863 9.93061 112.381 9.49792C111.902 9.06195 111.663 8.48339 111.663 7.76223C111.663 7.16892 111.824 6.64936 112.145 6.20356C112.469 5.75775 112.91 5.41193 113.468 5.16608C114.025 4.91695 114.656 4.79239 115.361 4.79239C116.075 4.79239 116.701 4.91695 117.239 5.16608C117.78 5.41193 118.204 5.75447 118.512 6.19372C118.82 6.62969 118.979 7.13122 118.989 7.69831H117.234Z"></path>
<defs>
<clipPath id="clip0_7497_1167">
<rect fill="white" height="20.7692" width="103.846"></rect>
</clipPath>
</defs>
</svg>
